<?xml version="1.0" encoding="UTF-8" standalone="no"?>
<svg
   xmlns:dc="http://purl.org/dc/elements/1.1/"
   xmlns:cc="http://creativecommons.org/ns#"
   xmlns:rdf="http://www.w3.org/1999/02/22-rdf-syntax-ns#"
   xmlns:svg="http://www.w3.org/2000/svg"
   xmlns="http://www.w3.org/2000/svg"
   version="1.1"
   id="svg2"
   viewBox="0 0 869.906 370.668"
   style="clip-rule:evenodd;fill-rule:evenodd;image-rendering:optimizeQuality;shape-rendering:geometricPrecision;text-rendering:geometricPrecision"
   height="234.3307"
   width="549.94019"
   xml:space="preserve"><metadata
     id="metadata45"><rdf:RDF><cc:Work
         rdf:about=""><dc:format>image/svg+xml</dc:format><dc:type
           rdf:resource="http://purl.org/dc/dcmitype/StillImage" /><dc:title></dc:title></cc:Work></rdf:RDF></metadata><defs
     id="defs4"><style
       id="style6"
       type="text/css">
   
    .str0 {stroke:white;stroke-width:0.455563}
    .str2 {stroke:#1F1A17;stroke-width:5.97852}
    .str1 {stroke:#1F1A17;stroke-width:11.957}
    .fil2 {fill:none}
    .fil1 {fill:#252425}
    .fil0 {fill:#1F1A17;fill-rule:nonzero}
   
  </style></defs><g
     id="g17" /><g
     id="g4526"><g
       id="g4540"><path
         class="fil1"
         d="m 251.703,97.8731 c 28.5379,-5.18278 49.1339,0.500402 60.1439,19.2975 5.11821,9.81075 12.9537,13.3177 19.0589,16.3572 27.5478,7.63337 34.951,24.6148 22.209,50.9436 22.0195,6.5967 28.847,20.5679 19.9784,37.0381 -12.345,16.8242 -30.3661,5.59709 -43.6683,17.321 -23.4501,20.6677 -36.8976,13.8606 -56.4025,1.59746 -7.15509,-3.9518 -17.2863,-0.48007 -23.9721,1.06597 -5.94085,15.6918 -1.50479,32.5859 11.4698,29.2995 11.9433,-3.05801 26.2038,-0.20327 36.283,6.57876 3.62733,2.44088 9.80232,3.97579 17.25122,5.05139 7.4489,1.0756 16.17171,1.69189 24.89467,2.29554 8.72295,0.60364 17.44606,1.19464 24.89555,2.21965 -0.1165,0.0349 -5.16401,4.0754 -5.16401,4.0754 -7.68142,-0.14154 -15.7736,-0.19093 -24.18215,-0.16347 -16.81709,0.0549 -34.89964,0.41723 -53.4925,0.96459 -37.18572,1.09472 -76.41266,2.92964 -111.63953,4.52598 -35.22688,1.59634 -66.45369,2.9541 -87.63916,3.0945 0,0 -13.082835,-8.51922 -13.086238,-9.04826 7.673844,-0.58192 17.543187,-0.46597 27.786337,-0.67544 10.243151,-0.20947 20.860101,-0.74435 30.029171,-2.62793 9.16907,-1.88358 16.89025,-5.11586 21.34185,-10.72011 6.25413,-12.4413 11.6169,-8.29639 18.7779,-9.34084 21.1078,2.67897 24.1072,-29.7079 25.4529,-38.8263 -3.43585,0.14707 -7.0421,0.77481 -10.0218,3.09388 -7.18319,5.59589 -48.2873,18.1968 -49.4531,1.6154 -0.86688,-12.3367 -13.9013,-13.5659 -31.3842,-10.9945 -33.020595,1.85155 -36.158095,-12.8263 -22.904295,-23.1829 l -5.65807,0.69649 c -23.4489,1.9496 -20.7765,-21.4449 -3.65945,-28.4177 9.67145,-4.82885 16.5426,-11.9798 18.5992,-21.8599 4.01756,-16.1886 15.223095,-26.0418 27.110795,-26.2923 20.0807,-44.664298 40.8841,-13.628 72.1739,-33.221398 30.8563,-25.1056 59.1282,-13.5007 64.8705,8.24378 z"
         id="path23"
         style="fill:#ffffff" /><path
         class="fil2 str0"
         d="m 114.434,123.354 c 20.1506,-45.4003 40.9917,-14.0579 72.3987,-33.7242 43.5948,-35.47 82.0283,2.33162 59.0606,38.4879"
         id="path25"
         style="fill:none;stroke:#e74c3c;stroke-width:3.95454836;stroke-miterlimit:4;stroke-dasharray:none;stroke-opacity:1" /><path
         class="fil2 str0"
         d="m 96.07,190.675 c -29.9063,7.02835 -38.7241,33.6902 5.10087,31.2324 17.4836,-2.57136 30.5174,-1.34218 31.3842,10.9945 1.16581,16.5814 42.2699,3.9805 49.4531,-1.6154 6.69116,-5.20729 16.5438,-1.88742 20.5213,-3.74315"
         id="path27"
         style="fill:none;stroke:#e74c3c;stroke-width:3.95454836;stroke-miterlimit:4;stroke-dasharray:none;stroke-opacity:1" /><path
         class="fil2 str0"
         d="m 77.6598,198.801 -5.05125,0.61997 c -23.4489,1.949 -20.7765,-21.4449 -3.65945,-28.4177 9.67145,-4.82885 16.5426,-11.9798 18.5992,-21.8599 7.5706,-30.5048 40.6055,-38.4831 55.7927,-2.19232"
         id="path29"
         style="fill:none;stroke:#e74c3c;stroke-width:3.95454836;stroke-miterlimit:4;stroke-dasharray:none;stroke-opacity:1" /><path
         class="fil2 str0"
         d="m 318.267,180.413 c 48.5952,-0.41491 67.3432,17.8519 54.8266,41.0969 -12.345,16.8247 -30.3661,5.59709 -43.6683,17.321 -23.4501,20.6677 -36.8976,13.8606 -56.4025,1.59746 -7.15509,-3.9512 -17.3323,-0.45975 -24.0181,1.08689"
         id="path31"
         style="fill:none;stroke:#e74c3c;stroke-width:3.95454836;stroke-miterlimit:4;stroke-dasharray:none;stroke-opacity:1" /><path
         class="fil2 str0"
         d="m 191.955,228.784 c -1.34576,9.11844 -4.26986,40.914 -25.3776,38.235 -7.16107,1.04445 -12.5238,-3.10046 -18.7779,9.34084 -8.9032,11.20855 -30.88472,12.92917 -51.371025,13.3481 -10.24315,0.20947 -20.112494,0.0935 -27.786337,0.67542"
         id="path33"
         style="fill:none;stroke:#e74c3c;stroke-width:3.95454836;stroke-miterlimit:4;stroke-dasharray:none;stroke-opacity:1" /><path
         class="fil2 str0"
         d="m 269.124,219.196 c -28.4859,13.5963 -28.7931,56.7792 -8.60309,51.597 11.9433,-3.05801 26.2038,-0.20327 36.283,6.57876 7.25465,4.88176 24.69998,6.13964 42.14589,7.34693 8.72295,0.60364 17.44606,1.19464 24.89555,2.21965"
         id="path35"
         style="fill:none;stroke:#e74c3c;stroke-width:3.95454836;stroke-miterlimit:4;stroke-dasharray:none;stroke-opacity:1" /><path
         class="fil2 str0"
         d="m 251.703,97.8731 c 28.5379,-5.18278 49.1339,0.500402 60.1439,19.2975 5.11821,9.81075 12.9543,13.3177 19.0589,16.3572 27.5478,7.63337 34.951,24.6148 22.209,50.9436"
         id="path37"
         style="fill:none;stroke:#e74c3c;stroke-width:3.95454836;stroke-miterlimit:4;stroke-dasharray:none;stroke-opacity:1" /><path
         class="fil0"
         d="m 456.947,346.902 c 0.0951,-12.6224 -7.78284,-23.2523 -21.0701,-23.2523 -12.8126,0 -21.2596,10.5347 -21.2596,22.7782 0,12.4329 8.25753,22.9838 21.2596,22.9838 8.63717,0 15.6601,-4.2872 19.646,-11.8793 l -3.60624,-2.0883 c -3.13215,5.88406 -8.63657,9.96559 -15.47,9.96559 -10.1551,0 -17.8429,-7.4032 -17.5583,-18.5077 h 38.0587 z m -38.0587,-3.98588 c 0.75927,-8.25693 8.16187,-15.2805 17.0836,-15.2805 9.0162,0 15.6601,7.21308 16.704,15.2805 z m 20.2158,-42.2347 -9.58596,13.9515 3.60684,1.6136 11.7687,-13.762 -5.7896,-1.80312 z m 67.1962,64.7282 c -10.6298,0 -17.2737,-9.11126 -17.2737,-19.1719 0,-9.4909 6.92851,-18.6022 16.9886,-18.6022 10.6298,0 17.5583,7.97236 17.5583,18.1275 0,10.5353 -6.07418,19.6466 -17.2731,19.6466 z m 16.9886,3.03709 h 4.27105 v -78.3001 h -4.27105 v 42.0445 h -0.19012 c -3.7013,-5.50442 -10.1551,-8.54151 -16.8935,-8.54151 -13.1922,0 -21.4497,9.77548 -21.4497,22.588 0,12.8126 8.35199,23.1739 21.6393,23.1739 6.45381,0 13.4774,-3.24275 16.704,-8.84283 h 0.19012 v 7.87789 z m 46.5057,-43.8483 h -4.27046 v 43.8483 h 4.27046 z m -2.0877,-18.5071 c -2.18276,0 -3.89142,1.80312 -3.89142,3.89142 0,2.18276 1.70866,3.89082 3.89142,3.89082 2.18276,0 3.89142,-1.70806 3.89142,-3.89082 0,-2.0883 -1.70866,-3.89142 -3.89142,-3.89142 z m 44.8921,22.4936 h 7.68778 v -3.98648 H 612.599 v -15.6601 h -4.27046 v 15.6601 h -4.84081 v 3.98648 h 4.84081 v 39.8618 h 4.27046 z m 42.7099,-3.98648 h -4.27105 v 43.8483 h 4.27105 z m -2.0877,-18.5071 c -2.18336,0 -3.89142,1.80312 -3.89142,3.89142 0,2.18276 1.70806,3.89082 3.89142,3.89082 2.18276,0 3.89082,-1.70806 3.89082,-3.89082 0,-2.0883 -1.70806,-3.89142 -3.89082,-3.89142 z m 58.6541,17.5583 c -12.7181,0 -22.7782,10.3446 -22.7782,22.9677 0,12.4329 10.1551,22.7943 22.7782,22.7943 12.9076,0 23.0627,-9.88668 23.0627,-22.8894 0,-13.0021 -10.1551,-22.8726 -23.0627,-22.8726 z m -0.28458,3.98588 c 10.8193,0 19.0763,8.16247 19.0763,18.9818 0,10.6298 -8.35199,18.7923 -19.0763,18.7923 -10.3452,0 -18.2225,-8.82669 -18.2225,-18.7923 0,-10.1551 7.78224,-18.9818 18.2225,-18.9818 z m 59.6979,-3.03709 h -4.27105 v 43.8483 h 4.27105 v -21.6393 c 0,-8.92174 1.80312,-19.1719 12.8126,-19.1719 9.58596,0 10.5347,6.45381 10.5347,14.3311 v 26.4801 h 4.27105 v -26.4801 c 0,-11.294 -3.13215,-18.317 -14.4262,-18.317 -5.69454,0 -10.4397,2.94203 -13.0021,7.78224 h -0.19012 v -6.83345 z m 86.0829,6.07418 c -1.89818,-4.08094 -6.73839,-7.02297 -11.199,-7.02297 -6.35875,0 -11.9588,4.46057 -11.9588,11.1045 0,7.4026 6.83345,9.965 12.8132,12.1478 4.36551,1.51914 8.54151,3.2272 8.54151,8.63717 0,5.50442 -4.36551,9.87054 -9.87054,9.87054 -5.7896,0 -9.30078,-3.7019 -10.9144,-8.92174 l -4.176,1.32902 c 1.80312,7.11802 7.78224,11.5947 15.0904,11.5947 7.8773,0 14.1416,-5.61562 14.1416,-13.683 0,-15.8497 -21.3547,-10.7243 -21.3547,-21.2596 0,-3.79636 3.79636,-6.83345 7.49766,-6.83345 3.41672,0 6.26429,1.89818 7.68778,4.93527 l 3.7013,-1.89818 z"
         id="path13"
         style="fill:#ffffff;fill-rule:nonzero" /><path
         class="fil0"
         d="m 443.736,121.683 h -11.3891 v 116.928 h 11.3891 v -64.2846 c 0,-18.9824 4.55563,-44.5442 29.1058,-44.5442 22.7782,0 26.0681,18.4754 26.0681,36.6979 v 72.1308 h 11.3891 v -67.3223 c 0,-20.2469 5.82128,-41.5065 30.118,-41.5065 22.2718,0 25.056,15.9447 25.056,33.9143 v 74.9144 h 11.3891 v -73.3959 c 0,-25.5624 -6.07418,-46.0627 -36.1922,-46.0627 -14.9325,0 -27.8402,7.33983 -34.1672,21.2596 -6.07418,-13.6669 -17.9696,-21.2596 -32.9016,-21.2596 -12.4018,0 -24.0438,6.32707 -29.3587,17.2104 h -0.50638 V 121.6829 Z M 672.53,230.512 c -28.8517,0 -46.0621,-23.5368 -46.0621,-50.8706 0,-27.8402 16.9569,-49.8591 46.5685,-49.8591 27.0809,0 45.5563,24.0438 45.5563,49.6056 0,26.828 -17.4633,51.1241 -46.0627,51.1241 z m -56.6919,8.0991 h 11.3891 V 217.605 h 0.50638 c 8.60488,14.9319 27.3338,23.5793 44.5436,23.5793 35.4329,0 57.7047,-27.6291 57.7047,-61.7964 0,-34.1672 -22.2718,-60.2354 -57.1983,-60.2354 -17.9696,0 -35.18,8.0991 -45.0499,22.7782 H 627.2273 V 29.8117 h -11.3891 v 208.8 z m 212.596,-116.928 v 66.0567 c 0,22.5253 -2.53131,42.7721 -30.6244,42.7721 -28.0931,0 -30.6238,-20.2469 -30.6238,-42.7721 v -66.0567 h -11.3891 v 70.1059 c 0,11.8955 -0.25289,23.7909 7.08634,33.6615 8.0991,10.6298 21.766,15.7337 34.9265,15.7337 13.1611,0 26.828,-5.10386 34.9265,-15.7337 7.33983,-9.87054 7.08694,-21.766 7.08694,-33.6615 v -70.1059 h -11.3891 z m -19.2353,-63.7788 -25.5618,37.2043 9.61705,4.30274 31.3836,-36.6979 -15.4389,-4.80912 z"
         id="path15"
         style="fill:#ffffff;fill-rule:nonzero" /><path
         class="fil2 str1"
         d="m 217.564,5.97852 c 99.0384,0 179.356,80.3166 179.356,179.356 0,99.039 -80.3172,179.356 -179.356,179.356 -99.0384,0 -179.356,-80.3166 -179.356,-179.356 0,-99.039 80.3172,-179.356 179.356,-179.356 z"
         id="path39"
         style="fill:none;stroke:#ffffff;stroke-width:11.95699978" /><path
         class="fil2 str2"
         d="M 0.408931,309.205 C 144.54193,288.7417 724.59393,273.8241 869.82393,278.1388"
         id="path41"
         style="fill:none;stroke:#ffffff;stroke-width:5.97851992" /></g></g></svg>